<?xml version="1.0" encoding="UTF-8" standalone="no"?>
<!-- Created with Inkscape (http://www.inkscape.org/) -->

<svg
   width="210mm"
   height="297mm"
   viewBox="0 0 210 297"
   version="1.1"
   id="svg5"
   inkscape:version="1.2.2 (b0a8486541, 2022-12-01)"
   sodipodi:docname="arrows.svg"
   xmlns:inkscape="http://www.inkscape.org/namespaces/inkscape"
   xmlns:sodipodi="http://sodipodi.sourceforge.net/DTD/sodipodi-0.dtd"
   xmlns:xlink="http://www.w3.org/1999/xlink"
   xmlns="http://www.w3.org/2000/svg"
   xmlns:svg="http://www.w3.org/2000/svg">
  <sodipodi:namedview
     id="namedview7"
     pagecolor="#ffffff"
     bordercolor="#000000"
     borderopacity="0.25"
     inkscape:showpageshadow="2"
     inkscape:pageopacity="0.0"
     inkscape:pagecheckerboard="0"
     inkscape:deskcolor="#d1d1d1"
     inkscape:document-units="mm"
     showgrid="true"
     inkscape:zoom="7.9999996"
     inkscape:cx="49.000002"
     inkscape:cy="38.312502"
     inkscape:window-width="1920"
     inkscape:window-height="1080"
     inkscape:window-x="0"
     inkscape:window-y="0"
     inkscape:window-maximized="1"
     inkscape:current-layer="layer1">
    <inkscape:grid
       type="axonomgrid"
       id="grid132"
       gridanglex="30"
       units="px"
       spacingy="0.65604231" />
  </sodipodi:namedview>
  <defs
     id="defs2">
    <linearGradient
       inkscape:collect="always"
       id="linearGradient1305">
      <stop
         style="stop-color:#000000;stop-opacity:1;"
         offset="0"
         id="stop1301" />
      <stop
         style="stop-color:#4d4d4d;stop-opacity:0;"
         offset="1"
         id="stop1303" />
    </linearGradient>
    <radialGradient
       inkscape:collect="always"
       xlink:href="#linearGradient1305"
       id="radialGradient1307"
       cx="14.203732"
       cy="17.820602"
       fx="14.203732"
       fy="17.820602"
       r="2.4146347"
       gradientTransform="matrix(1,0,0,0.54338828,1.9252278e-7,8.2884072)"
       gradientUnits="userSpaceOnUse" />
  </defs>
  <g
     inkscape:label="Layer 1"
     inkscape:groupmode="layer"
     id="layer1">
    <path
       style="fill:#f2f2f2;fill-opacity:1;stroke:none;stroke-width:0.15;stroke-linecap:round"
       d="m 14.203733,32.474095 -4.5451946,2.62417 4.5451946,2.624168 4.545195,-2.624168 z"
       id="path1917" />
    <path
       style="fill:none;stroke:none;stroke-width:0.0649999;stroke-linecap:round"
       d="m 68.177917,32.802116 -5.681493,-3.280211 5.681493,-3.280212 5.681493,3.280212 z"
       id="path415-3-2-7-0"
       inkscape:export-filename="arrows.png"
       inkscape:export-xdpi="286.12198"
       inkscape:export-ydpi="286.12198" />
    <path
       style="fill:none;stroke:none;stroke-width:0.0649999;stroke-linecap:round"
       d="m 56.814931,26.241694 5.681493,3.280211 -5.681493,3.280212 -5.681493,-3.280212 z"
       id="path415-3-6-7" />
    <path
       style="fill:none;stroke:none;stroke-width:0.0649999;stroke-linecap:round"
       d="m 34.088958,26.241693 -5.681493,3.280211 5.681493,3.280212 5.681493,-3.280212 z"
       id="path415-3-6" />
    <path
       style="fill:none;stroke:none;stroke-width:0.0649999;stroke-linecap:round"
       d="m 56.814931,19.68127 5.681493,3.280211 -5.681493,3.280212 -5.681493,-3.280212 z"
       id="path415-3-1-6" />
    <path
       style="fill:none;stroke:none;stroke-width:0.0649999;stroke-linecap:round"
       d="m 34.088959,19.68127 -5.681493,3.280211 5.681493,3.280212 5.681493,-3.280212 z"
       id="path415-3-1" />
    <path
       style="fill:none;stroke:none;stroke-width:0.0649999;stroke-linecap:round"
       d="m 34.088958,13.120847 -5.681493,3.280211 5.681493,3.280212 5.681493,-3.280212 z"
       id="path415-3" />
    <path
       style="fill:#ff5959;fill-opacity:1;stroke:none;stroke-width:0.0649999;stroke-linecap:round"
       d="M 38.066003,14.760952 34.088958,17.0571 v 0.656043 l 3.977045,-2.296148 z"
       id="path4518" />
    <path
       style="fill:#ff0000;fill-opacity:1;stroke:none;stroke-width:0.0649999;stroke-linecap:round"
       d="m 35.793407,20.009291 -2.272599,1.312084 -0.568148,-0.328021 v 1.968127 h 3.408895 l -0.568148,-0.328021 2.272596,-1.312085 z"
       id="path4502" />
    <path
       style="fill:#ff0000;fill-opacity:1;stroke:none;stroke-width:0.0649999;stroke-linecap:round"
       d="m 44.315647,21.649397 v 1.968126 l 0.568147,-0.328022 2.272599,1.312085 2.272596,-1.312085 -2.272596,-1.312083 0.568148,-0.328021 z"
       id="path4504" />
    <path
       style="fill:#ff0000;fill-opacity:1;stroke:none;stroke-width:0.0649999;stroke-linecap:round"
       d="m 52.837884,21.321375 2.272598,1.312085 -0.56815,0.328021 h 3.408897 v -1.968127 l -0.56815,0.328021 -2.272597,-1.312084 z"
       id="path4506" />
    <path
       style="fill:#ff0000;fill-opacity:1;stroke:none;stroke-width:0.0649999;stroke-linecap:round"
       d="m 64.20087,23.289501 2.272599,-1.312083 -0.568151,-0.328021 h 3.408897 v 1.968126 l -0.56815,-0.328022 -2.272596,1.312085 z"
       id="path4508" />
    <path
       style="fill:#ff0000;fill-opacity:1;stroke:none;stroke-width:0.0649999;stroke-linecap:round"
       d="m 35.793407,26.569713 -3.977046,2.296149 3.977046,2.296147 2.272596,-1.312085 -1.704448,-0.984062 1.704448,-0.984065 z"
       id="path4510" />
    <path
       style="fill:#ff0000;fill-opacity:1;stroke:none;stroke-width:0.0649999;stroke-linecap:round"
       d="m 41.4749,29.849924 3.977045,-2.296147 3.977044,2.296147 -2.272596,1.312085 -1.704448,-0.984062 -1.704449,0.984062 z"
       id="path4512" />
    <path
       style="fill:#ff0000;fill-opacity:1;stroke:none;stroke-width:0.0649999;stroke-linecap:round"
       d="m 52.837884,27.881797 1.704448,0.984065 -1.704448,0.984062 2.272598,1.312085 3.977045,-2.296147 -3.977045,-2.296149 z"
       id="path4514" />
    <path
       style="fill:#ff0000;fill-opacity:1;stroke:none;stroke-width:0.0649999;stroke-linecap:round"
       d="m 66.473469,26.569713 1.704448,0.984064 1.704446,-0.984064 2.272599,1.312084 -3.977045,2.29615 -3.977047,-2.29615 z"
       id="path4516" />
    <path
       style="fill:#ce0000;fill-opacity:1;stroke:none;stroke-width:0.0649999;stroke-linecap:round"
       d="m 31.816361,9.1845926 v 0.656042 l 2.272597,1.3120854 v -0.656043 z"
       id="path3460" />
    <path
       style="fill:#ff5959;fill-opacity:1;stroke:none;stroke-width:0.0649999;stroke-linecap:round"
       d="M 34.088958,10.496677 V 11.15272 L 36.361555,9.8406346 V 9.1845926 Z"
       id="path1554" />
    <path
       style="fill:#ff0000;stroke:none;stroke-width:0.0649999;stroke-linecap:round"
       d="m 34.088958,7.8725076 -2.272597,1.312085 2.272597,1.3120844 2.272597,-1.3120844 z"
       id="path1552" />
    <path
       style="fill:none;stroke:none;stroke-width:0.0649999;stroke-linecap:round"
       d="m 34.088958,6.5604236 -5.681493,3.280211 5.681493,3.2802124 5.681493,-3.2802124 z"
       id="path415" />
    <path
       style="fill:none;stroke:none;stroke-width:0.0649999;stroke-linecap:round;fill-opacity:0.60238284"
       d="m 34.088958,32.802115 -5.681493,3.280211 5.681493,3.280213 5.681493,-3.280213 z"
       id="path415-5"
       inkscape:export-filename="arrows.png"
       inkscape:export-xdpi="572.2439"
       inkscape:export-ydpi="572.2439" />
    <path
       style="fill:none;stroke:none;stroke-width:0.0649999;stroke-linecap:round;fill-opacity:0.60238284"
       d="m 68.177917,52.483384 -5.681493,3.280211 5.681493,3.280213 5.681493,-3.280213 z"
       id="path415-5-3" />
    <path
       style="fill:#ff0000;fill-opacity:1;stroke:none;stroke-width:0.0649999;stroke-linecap:round"
       d="m 35.793407,13.448868 -3.977046,2.296148 2.272597,1.312084 3.977045,-2.296148 z"
       id="path4218" />
    <path
       style="fill:none;stroke:none;stroke-width:0.0649999;stroke-linecap:round"
       d="m 45.451944,13.120847 -5.681493,3.280211 5.681493,3.280212 5.681493,-3.280212 z"
       id="path415-3-2" />
    <path
       style="fill:#ff0000;fill-opacity:1;stroke:none;stroke-width:0.0649999;stroke-linecap:round"
       d="m 45.451945,14.432931 -2.272599,1.312085 3.977047,2.296148 2.272596,-1.312085 z"
       id="path4496" />
    <path
       style="fill:none;stroke:none;stroke-width:0.0649999;stroke-linecap:round"
       d="m 45.451944,19.68127 -5.681493,3.280211 5.681493,3.280212 5.681493,-3.280212 z"
       id="path415-3-2-61" />
    <path
       style="fill:none;stroke:none;stroke-width:0.0649999;stroke-linecap:round"
       d="m 56.814931,13.120847 5.681493,3.280211 -5.681493,3.280212 -5.681493,-3.280212 z"
       id="path415-3-9" />
    <path
       style="fill:#ff0000;fill-opacity:1;stroke:none;stroke-width:0.0649999;stroke-linecap:round"
       d="m 52.837884,14.760952 3.977047,2.296148 2.272596,-1.312084 -3.977045,-2.296148 z"
       id="path4498" />
    <path
       style="fill:none;stroke:none;stroke-width:0.0649999;stroke-linecap:round"
       d="m 68.177917,13.120847 5.681493,3.280211 -5.681493,3.280212 -5.681493,-3.280212 z"
       id="path415-3-2-6" />
    <path
       style="fill:#ff0000;fill-opacity:1;stroke:none;stroke-width:0.0649999;stroke-linecap:round"
       d="m 68.177917,14.432931 -3.977047,2.296148 2.272599,1.312085 3.977044,-2.296148 z"
       id="path4500" />
    <path
       style="fill:none;stroke:none;stroke-width:0.0649999;stroke-linecap:round"
       d="m 45.451944,26.241693 -5.681493,3.280211 5.681493,3.280212 5.681493,-3.280212 z"
       id="path415-3-2-7" />
    <path
       style="fill:none;stroke:none;stroke-width:0.0649999;stroke-linecap:round"
       d="m 68.177918,19.681271 5.681493,3.280211 -5.681493,3.280212 -5.681493,-3.280212 z"
       id="path415-3-2-61-0" />
    <path
       style="fill:#ff5959;fill-opacity:1;stroke:none;stroke-width:0.0649999;stroke-linecap:round"
       d="m 56.814931,17.0571 v 0.656043 l 2.272596,-1.312085 v -0.656042 z"
       id="path4658" />
    <path
       style="fill:#ff5959;fill-opacity:1;stroke:none;stroke-width:0.0649999;stroke-linecap:round"
       d="m 66.473469,18.041164 v 0.656042 l 3.977044,-2.296148 v -0.656042 z"
       id="path4660" />
    <path
       style="fill:#ff5959;fill-opacity:1;stroke:none;stroke-width:0.0649999;stroke-linecap:round"
       d="m 44.315647,23.617523 v 0.656043 l 0.568147,-0.328023 v -0.656042 z"
       id="path4662" />
    <path
       style="fill:#ff5959;fill-opacity:1;stroke:none;stroke-width:0.0649999;stroke-linecap:round"
       d="m 47.724541,21.649397 -0.568148,0.328021 0.568148,0.328021 z"
       id="path4664" />
    <path
       style="fill:#ff5959;fill-opacity:1;stroke:none;stroke-width:0.0649999;stroke-linecap:round"
       d="m 68.746065,23.289501 v 0.656042 l -2.272596,1.312085 v -0.656042 z"
       id="path4666" />
    <path
       style="fill:#ff5959;fill-opacity:1;stroke:none;stroke-width:0.0649999;stroke-linecap:round"
       d="m 68.177917,30.177947 v 0.656042 l 3.977045,-2.29615 v -0.656042 z"
       id="path4668" />
    <path
       style="fill:#ff5959;fill-opacity:1;stroke:none;stroke-width:0.0649999;stroke-linecap:round"
       d="m 59.087527,28.865862 v 0.656042 l -3.977045,2.296147 v -0.656042 z"
       id="path4670" />
    <path
       style="fill:#ff5959;fill-opacity:1;stroke:none;stroke-width:0.0649999;stroke-linecap:round"
       d="m 45.451945,30.177947 v 0.656042 l -1.704449,0.984062 c 0,0 0,-0.656042 0,-0.656042 z"
       id="path4672" />
    <path
       style="fill:#ff5959;fill-opacity:1;stroke:none;stroke-width:0.0649999;stroke-linecap:round"
       d="m 38.066003,27.881797 v 0.656042 l -1.136298,0.656043 -0.56815,-0.32802 z"
       id="path4674" />
    <path
       style="fill:#ff5959;fill-opacity:1;stroke:none;stroke-width:0.0649999;stroke-linecap:round"
       d="m 35.793407,22.63346 0.568148,0.328021 1.704448,-0.984063 v -0.656043 z"
       id="path4676" />
    <path
       style="fill:#ce0000;fill-opacity:1;stroke:none;stroke-width:0.0649999;stroke-linecap:round"
       d="m 31.816361,15.745016 v 0.656042 l 2.272597,1.312085 V 17.0571 Z"
       id="path4678" />
    <path
       style="fill:#ce0000;fill-opacity:1;stroke:none;stroke-width:0.0649999;stroke-linecap:round"
       d="m 43.179346,15.745016 v 0.656042 l 3.977047,2.296148 v -0.656042 z"
       id="path4956" />
    <path
       style="fill:none;stroke:none;stroke-width:0.0649999;stroke-linecap:round"
       d="m 45.451944,6.5604235 -5.681493,3.2802111 5.681493,3.2802124 5.681493,-3.2802124 z"
       id="path415-3-2-1" />
    <path
       style="fill:#ce0000;fill-opacity:1;stroke:none;stroke-width:0.0649999;stroke-linecap:round"
       d="m 52.837884,14.760952 v 0.656043 l 3.977047,2.296148 V 17.0571 Z"
       id="path4958" />
    <path
       style="fill:#ce0000;fill-opacity:1;stroke:none;stroke-width:0.0649999;stroke-linecap:round"
       d="m 44.883794,23.289501 v 0.656042 l 2.272599,1.312085 v -0.656042 z"
       id="path4960" />
    <path
       style="fill:#ce0000;fill-opacity:1;stroke:none;stroke-width:0.0649999;stroke-linecap:round"
       d="m 52.837884,21.321375 v 0.656043 l 1.704448,0.984063 0.56815,-0.328021 z"
       id="path4962" />
    <path
       style="fill:#ce0000;fill-opacity:1;stroke:none;stroke-width:0.0649999;stroke-linecap:round"
       d="m 65.905318,21.649397 v 0.656042 l 0.568151,-0.328021 z"
       id="path4964" />
    <path
       style="fill:#ce0000;fill-opacity:1;stroke:none;stroke-width:0.0649999;stroke-linecap:round"
       d="m 68.746065,23.289501 v 0.656042 l 0.56815,0.328023 v -0.656043 z"
       id="path4966" />
    <path
       style="fill:#ce0000;fill-opacity:1;stroke:none;stroke-width:0.0649999;stroke-linecap:round"
       d="m 31.816361,28.865862 v 0.656042 l 3.977046,2.296147 v -0.656042 z"
       id="path4968" />
    <path
       style="fill:#ce0000;fill-opacity:1;stroke:none;stroke-width:0.0649999;stroke-linecap:round"
       d="m 45.451945,30.177947 v 0.656042 l 1.704448,0.984062 v -0.656042 z"
       id="path4970" />
    <path
       style="fill:#ce0000;fill-opacity:1;stroke:none;stroke-width:0.0649999;stroke-linecap:round"
       d="m 52.837884,27.881797 v 0.656042 l 1.1363,0.656043 0.568148,-0.32802 z"
       id="path4972" />
    <path
       style="fill:#ce0000;fill-opacity:1;stroke:none;stroke-width:0.0649999;stroke-linecap:round"
       d="m 64.20087,27.881797 v 0.656042 l 3.977047,2.29615 v -0.656042 z"
       id="path4974" />
    <path
       style="fill:#a70000;fill-opacity:1;stroke:none;stroke-width:0.0649999;stroke-linecap:round"
       d="m 32.95266,22.961481 v 0.656042 h 3.408895 v -0.656042 z"
       id="path4976" />
    <path
       style="fill:#a70000;fill-opacity:1;stroke:none;stroke-width:0.0649999;stroke-linecap:round"
       d="m 54.542332,22.961481 v 0.656042 h 3.408897 v -0.656042 z"
       id="path6760" />
    <path
       style="fill:#ce0000;fill-opacity:1;stroke:none;stroke-width:0.0649999;stroke-linecap:round"
       d="m 41.4749,8.8565716 5.681493,3.2802114 V 11.480741 L 41.4749,8.2005286 Z"
       id="path6794" />
    <path
       style="fill:#ff0000;fill-opacity:1;stroke:none;stroke-width:0.0649999;stroke-linecap:round"
       d="m 41.4749,8.2005286 5.681493,3.2802124 2.272596,-1.312085 -5.681493,-3.2802114 z"
       id="path6859" />
    <path
       style="fill:none;stroke:none;stroke-width:0.0649999;stroke-linecap:round"
       d="m 56.814931,6.5604232 -5.681493,3.2802114 5.681493,3.2802124 5.681493,-3.2802124 z"
       id="path415-3-2-1-1" />
    <path
       style="fill:#ff0000;fill-opacity:1;stroke:none;stroke-width:0.0649999;stroke-linecap:round"
       d="M 60.791976,8.2005286 55.110483,11.480741 52.837887,10.168656 58.51938,6.8884446 Z"
       id="path6859-9" />
    <path
       style="fill:#ff5959;fill-opacity:1;stroke:none;stroke-width:0.0649999;stroke-linecap:round"
       d="m 55.110482,11.480741 v 0.656042 l 5.681493,-3.2802114 v -0.656043 z"
       id="path6962" />
    <path
       style="fill:none;stroke:none;stroke-width:0.0649999;stroke-linecap:round"
       d="m 14.203732,14.760951 -5.6814928,3.280212 5.6814928,3.280212 5.681494,-3.280212 z"
       id="path400-3"
       inkscape:export-filename="unit.png"
       inkscape:export-xdpi="572.24384"
       inkscape:export-ydpi="572.24384" />
    <ellipse
       style="fill:url(#radialGradient1307);fill-opacity:1;stroke:none;stroke-width:0.06753;stroke-linecap:round"
       id="path1276"
       cx="14.203732"
       cy="17.971914"
       rx="2.4146347"
       ry="1.3120842" />
    <path
       style="fill:none;stroke:none;stroke-width:0.0649999;stroke-linecap:round"
       d="M 14.203731,8.2005292 8.5222382,11.48074 14.203731,14.760952 19.885225,11.48074 Z"
       id="path400" />
    <path
       style="fill:#c2c2c2;fill-opacity:1;stroke:none;stroke-width:0.0649999;stroke-linecap:round"
       d="m 12.499285,11.48074 1.704448,0.984064 V 7.872508 L 12.499285,6.888444 Z"
       id="path642" />
    <path
       style="fill:#ffffff;fill-opacity:1;stroke:none;stroke-width:0.0649999;stroke-linecap:round"
       d="M 14.203733,12.464804 15.908181,11.48074 V 6.888444 l -1.704448,0.984064 z"
       id="path644" />
    <path
       style="fill:#f2f2f2;fill-opacity:1;stroke:none;stroke-width:0.0649999;stroke-linecap:round"
       d="m 12.499285,6.888444 1.704448,-0.984063 1.704448,0.984063 -1.704448,0.984064 z"
       id="path646" />
    <circle
       style="fill:#00ff00;stroke:none;stroke-width:0.15;stroke-linecap:round;stroke-dasharray:none"
       id="path1299"
       cx="34.200401"
       cy="3.2802114"
       r="1.2477424" />
    <path
       style="fill:#000000;stroke:none;stroke-width:0.15;stroke-linecap:round;stroke-dasharray:none;fill-opacity:0.60238284"
       d="m 34.088959,36.73837 -1.136299,-0.656043 1.136299,-0.656042 1.136298,0.656042 z"
       id="path1409" />
    <path
       style="fill:#000000;stroke:none;stroke-width:0.15;stroke-linecap:round;stroke-dasharray:none;fill-opacity:0.60238284"
       d="m 32.95266,42.64275 1.136299,0.656042 3.408894,-1.968127 -1.136298,-0.656042 z"
       id="path1415" />
    <path
       style="fill:#000000;stroke:none;stroke-width:0.15;stroke-linecap:round;stroke-dasharray:none;fill-opacity:0.60238284"
       d="m 45.451945,41.986707 -1.136301,0.656043 3.408897,1.968127 1.136298,-0.656043 z"
       id="path1417" />
    <path
       style="fill:#000000;stroke:none;stroke-width:0.15;stroke-linecap:round;stroke-dasharray:none;fill-opacity:0.60238284"
       d="m 56.814931,43.298792 1.136298,-0.656042 -3.408897,-1.968127 -1.136298,0.656042 z"
       id="path1419" />
    <path
       style="fill:#000000;stroke:none;stroke-width:0.15;stroke-linecap:round;stroke-dasharray:none;fill-opacity:0.60238284"
       d="m 68.177917,41.986707 -3.408897,1.968127 1.136298,0.656043 3.408897,-1.968127 z"
       id="path1421" />
    <path
       style="fill:#000000;stroke:none;stroke-width:0.15;stroke-linecap:round;stroke-dasharray:none;fill-opacity:0.60238284"
       d="m 43.179346,34.1142 -1.136298,0.656042 5.681493,3.280212 1.136298,-0.656043 z"
       id="path1423" />
    <path
       style="fill:#000000;stroke:none;stroke-width:0.15;stroke-linecap:round;stroke-dasharray:none;fill-opacity:0.60238284"
       d="m 53.406034,37.394411 1.136298,0.656043 5.681493,-3.280212 -1.136298,-0.656042 z"
       id="path1425" />
    <path
       style="fill:#000000;stroke:none;stroke-width:0.15;stroke-linecap:round;stroke-dasharray:none;fill-opacity:0.60238284"
       d="m 36.361555,47.235046 -2.272596,1.312085 -0.568151,-0.328023 v 1.312085 h 2.272599 l -0.56815,-0.32802 2.272596,-1.312085 z"
       id="path1427" />
    <path
       style="fill:#000000;stroke:none;stroke-width:0.15;stroke-linecap:round;stroke-dasharray:none;fill-opacity:0.60238284"
       d="m 47.724541,51.1713 -2.272596,-1.312085 -0.568151,0.32802 V 48.87515 h 2.272597 l -0.568148,0.328023 2.272596,1.312084 z"
       id="path1429" />
    <path
       style="fill:#000000;stroke:none;stroke-width:0.15;stroke-linecap:round;stroke-dasharray:none;fill-opacity:0.60238284"
       d="m 54.542332,47.235046 2.272599,1.312085 0.568148,-0.328023 v 1.312085 h -2.272597 l 0.568148,-0.32802 -2.272596,-1.312085 z"
       id="path1431" />
    <path
       style="fill:#000000;stroke:none;stroke-width:0.15;stroke-linecap:round;stroke-dasharray:none;fill-opacity:0.60238284"
       d="m 64.76902,50.515257 2.272596,-1.312084 -0.568147,-0.328023 h 2.272596 v 1.312085 l -0.568148,-0.32802 -2.272599,1.312085 z"
       id="path1433" />
    <path
       style="fill:#000000;stroke:none;stroke-width:0.15;stroke-linecap:round;stroke-dasharray:none;fill-opacity:0.60238284"
       d="m 36.361555,53.795469 -3.408895,1.968127 3.408895,1.968127 1.136298,-0.656043 -2.272596,-1.312084 2.272596,-1.312085 z"
       id="path1435" />
    <path
       style="fill:#000000;stroke:none;stroke-width:0.15;stroke-linecap:round;stroke-dasharray:none;fill-opacity:0.60238284"
       d="m 42.043048,57.07568 3.408897,-1.968126 3.408894,1.968126 -1.136298,0.656043 -2.272596,-1.312085 -2.272599,1.312085 z"
       id="path1437" />
    <path
       style="fill:#000000;stroke:none;stroke-width:0.15;stroke-linecap:round;stroke-dasharray:none;fill-opacity:0.60238284"
       d="m 53.406034,54.451511 2.272596,1.312085 -2.272596,1.312084 1.136298,0.656043 3.408897,-1.968127 -3.408897,-1.968127 z"
       id="path1439" />
    <path
       style="fill:#000000;stroke:none;stroke-width:0.15;stroke-linecap:round;stroke-dasharray:none;fill-opacity:0.60238284"
       d="m 65.905318,53.795469 2.272599,1.312085 2.272596,-1.312085 1.136298,0.656042 -3.408894,1.968127 -3.408897,-1.968127 z"
       id="path1441" />
    <path
       style="fill:#c2c2c2;fill-opacity:1;stroke:none;stroke-width:0.15;stroke-linecap:round"
       d="m 9.6585384,35.098265 v 2.624168 l 4.5451946,2.624169 v -2.624169 z"
       id="path2121" />
    <path
       style="fill:#ffffff;fill-opacity:1;stroke:none;stroke-width:0.15;stroke-linecap:round"
       d="m 18.748928,35.098265 -4.545195,2.624168 v 2.624169 l 4.545195,-2.624169 z"
       id="path2061" />
    <path
       style="fill:none;fill-opacity:0.602383;stroke:#000000;stroke-width:0.15;stroke-linecap:round"
       d="m 14.203733,32.474095 -4.5451946,2.62417 v 2.624168 l 4.5451946,2.624169 4.545195,-2.624169 v -2.624168 z"
       id="path497" />
    <path
       style="fill:#f2f2f2;fill-opacity:1;stroke:none;stroke-width:0.15;stroke-linecap:round"
       d="m 14.203733,31.162011 -3.408895,1.968127 3.408895,1.968127 3.408896,-1.968127 z"
       id="path1915" />
    <path
       style="fill:#ffffff;fill-opacity:1;stroke:none;stroke-width:0.15;stroke-linecap:round"
       d="m 17.612629,33.130138 -3.408896,1.968127 v 1.968125 l 3.408896,-1.968125 z"
       id="path2059" />
    <path
       style="fill:#c2c2c2;fill-opacity:1;stroke:none;stroke-width:0.15;stroke-linecap:round"
       d="m 10.794838,33.130138 v 1.968127 l 3.408895,1.968125 v -1.968125 z"
       id="path2119" />
    <path
       style="fill:none;fill-opacity:0.602383;stroke:#000000;stroke-width:0.15;stroke-linecap:round"
       d="m 14.203733,31.162011 -3.408895,1.968127 v 1.968127 l 3.408895,1.968125 3.408896,-1.968125 c 0,0 0,-1.968127 0,-1.968127 z"
       id="path495" />
    <path
       style="fill:#f2f2f2;fill-opacity:1;stroke:none;stroke-width:0.15;stroke-linecap:round"
       d="m 14.203733,29.849926 -2.272597,1.312085 2.272597,1.312084 2.272598,-1.312084 z"
       id="path1514" />
    <path
       style="fill:#ffffff;fill-opacity:1;stroke:none;stroke-width:0.15;stroke-linecap:round"
       d="m 16.476331,31.162011 -2.272598,1.312084 v 1.968127 l 2.272598,-1.312084 z"
       id="path1919" />
    <path
       style="fill:#c2c2c2;fill-opacity:1;stroke:none;stroke-width:0.15;stroke-linecap:round"
       d="m 11.931136,31.162011 v 1.968127 l 2.272597,1.312084 v -1.968127 z"
       id="path2063" />
    <path
       style="fill:none;fill-opacity:0.602383;stroke:#000000;stroke-width:0.15;stroke-linecap:round"
       d="m 14.203734,29.849926 -2.272597,1.312085 v 1.968127 l 2.272597,1.312084 2.272598,-1.312084 v -1.968127 z"
       id="path446" />
    <path
       style="fill:#f2f2f2;fill-opacity:1;stroke:none;stroke-width:0.15;stroke-linecap:round"
       d="m 14.203733,29.193884 -1.136298,0.656042 1.136298,0.656043 1.136299,-0.656043 z"
       id="path499" />
    <path
       style="fill:#c2c2c2;fill-opacity:1;stroke:none;stroke-width:0.15;stroke-linecap:round"
       d="m 13.067435,29.849926 v 1.312085 l 1.136298,0.656042 v -1.312084 z"
       id="path1487" />
    <path
       style="fill:#ffffff;fill-opacity:1;stroke:none;stroke-width:0.15;stroke-linecap:round"
       d="m 14.203733,30.505967 v 1.312084 l 1.136299,-0.656042 v -1.312085 z"
       id="path1489" />
    <path
       style="fill:none;fill-opacity:0.602383;stroke:#000000;stroke-width:0.15;stroke-linecap:round"
       d="m 13.067434,31.16201 v -1.312085 l 1.136298,-0.656042 1.136299,0.656042 v 1.312085 l -1.136299,0.656042 z"
       id="path440" />
    <path
       style="fill:none;fill-opacity:0.602383;stroke:#000000;stroke-width:0.15;stroke-linecap:round"
       d="m 13.067435,29.849926 1.136298,0.656043 1.136299,-0.656043"
       id="path442" />
    <path
       style="fill:none;fill-opacity:0.602383;stroke:#000000;stroke-width:0.15;stroke-linecap:round"
       d="m 14.203733,30.505969 v 1.312084"
       id="path444" />
    <path
       style="fill:none;fill-opacity:1;stroke:#000000;stroke-width:0.15;stroke-linecap:round"
       d="m 11.931135,31.162008 2.272597,1.312085 2.272598,-1.312085"
       id="path2123" />
    <path
       style="fill:none;fill-opacity:1;stroke:#000000;stroke-width:0.15;stroke-linecap:round"
       d="M 14.203732,32.474093 V 34.44222"
       id="path2125" />
    <path
       style="fill:none;fill-opacity:1;stroke:#000000;stroke-width:0.15;stroke-linecap:round"
       d="m 10.794837,33.130135 3.408895,1.968127 3.408896,-1.968127"
       id="path2129" />
    <path
       style="fill:none;fill-opacity:1;stroke:#000000;stroke-width:0.15;stroke-linecap:round"
       d="m 14.203732,35.098262 v 1.968127"
       id="path2131" />
    <path
       style="fill:none;fill-opacity:1;stroke:#000000;stroke-width:0.15;stroke-linecap:round"
       d="m 9.658538,35.098262 4.545194,2.624169 4.545195,-2.624169"
       id="path2133" />
    <path
       style="fill:none;fill-opacity:1;stroke:#000000;stroke-width:0.15;stroke-linecap:round"
       d="M 14.203732,37.722431 V 40.3466"
       id="path2135" />
    <path
       style="fill:none;fill-opacity:1;stroke:none;stroke-width:0.15;stroke-linecap:round"
       d="m 14.203732,34.44222 -5.6814926,3.280211 5.6814926,3.280212 5.681494,-3.280212 z"
       id="path2137" />
    <path
       style="fill:none;fill-opacity:1;stroke:#000000;stroke-width:0.15;stroke-linecap:round"
       d="M 14.203732,5.9043813 12.499285,6.8884447 V 11.48074 l 1.704447,0.984064 1.704448,-0.984064 V 6.8884447 Z"
       id="path2393" />
    <path
       style="fill:none;fill-opacity:1;stroke:#000000;stroke-width:0.15;stroke-linecap:round"
       d="M 12.499285,6.8884447 14.203732,7.8725082 15.90818,6.8884447"
       id="path2449" />
    <path
       style="fill:none;fill-opacity:1;stroke:#000000;stroke-width:0.15;stroke-linecap:round"
       d="M 14.203732,7.8725082 V 12.464804"
       id="path2451" />
  </g>
</svg>
