<?xml version="1.0" encoding="UTF-8" standalone="no"?>
<!-- Created with Inkscape (http://www.inkscape.org/) -->

<svg
   width="210mm"
   height="297mm"
   viewBox="0 0 210 297"
   version="1.1"
   id="svg5"
   inkscape:version="1.2.2 (b0a8486541, 2022-12-01)"
   sodipodi:docname="arrows.svg"
   xmlns:inkscape="http://www.inkscape.org/namespaces/inkscape"
   xmlns:sodipodi="http://sodipodi.sourceforge.net/DTD/sodipodi-0.dtd"
   xmlns="http://www.w3.org/2000/svg"
   xmlns:svg="http://www.w3.org/2000/svg">
  <sodipodi:namedview
     id="namedview7"
     pagecolor="#ffffff"
     bordercolor="#000000"
     borderopacity="0.25"
     inkscape:showpageshadow="2"
     inkscape:pageopacity="0.0"
     inkscape:pagecheckerboard="0"
     inkscape:deskcolor="#d1d1d1"
     inkscape:document-units="mm"
     showgrid="true"
     inkscape:zoom="5.6568543"
     inkscape:cx="195.95697"
     inkscape:cy="76.279144"
     inkscape:window-width="1920"
     inkscape:window-height="1080"
     inkscape:window-x="0"
     inkscape:window-y="0"
     inkscape:window-maximized="1"
     inkscape:current-layer="layer1">
    <inkscape:grid
       type="axonomgrid"
       id="grid132"
       gridanglex="30"
       units="px"
       spacingy="0.65604231" />
  </sodipodi:namedview>
  <defs
     id="defs2" />
  <g
     inkscape:label="Layer 1"
     inkscape:groupmode="layer"
     id="layer1">
    <path
       style="fill:none;stroke:none;stroke-width:0.0649999;stroke-linecap:round"
       d="m 67.041619,32.802117 -5.681493,-3.280211 5.681493,-3.280212 5.681493,3.280212 z"
       id="path415-3-2-7-0"
       inkscape:export-filename="arrows.png"
       inkscape:export-xdpi="286.12198"
       inkscape:export-ydpi="286.12198" />
    <path
       style="fill:none;stroke:none;stroke-width:0.0649999;stroke-linecap:round"
       d="m 55.678633,26.241695 5.681493,3.280211 -5.681493,3.280212 -5.681493,-3.280212 z"
       id="path415-3-6-7" />
    <path
       style="fill:none;stroke:none;stroke-width:0.0649999;stroke-linecap:round"
       d="m 32.95266,26.241694 -5.681493,3.280211 5.681493,3.280212 5.681493,-3.280212 z"
       id="path415-3-6" />
    <path
       style="fill:none;stroke:none;stroke-width:0.0649999;stroke-linecap:round"
       d="m 55.678633,19.681271 5.681493,3.280211 -5.681493,3.280212 -5.681493,-3.280212 z"
       id="path415-3-1-6" />
    <path
       style="fill:none;stroke:none;stroke-width:0.0649999;stroke-linecap:round"
       d="m 32.952661,19.681271 -5.681493,3.280211 5.681493,3.280212 5.681493,-3.280212 z"
       id="path415-3-1" />
    <path
       style="fill:none;stroke:none;stroke-width:0.0649999;stroke-linecap:round"
       d="m 32.95266,13.120848 -5.681493,3.280211 5.681493,3.280212 5.681493,-3.280212 z"
       id="path415-3" />
    <path
       style="fill:#ff5959;fill-opacity:1;stroke:none;stroke-width:0.0649999;stroke-linecap:round"
       d="m 36.929705,14.760953 -3.977045,2.296148 v 0.656043 l 3.977045,-2.296148 z"
       id="path4518" />
    <path
       style="fill:#ff0000;fill-opacity:1;stroke:none;stroke-width:0.0649999;stroke-linecap:round"
       d="m 34.657109,20.009292 -2.272599,1.312084 -0.568148,-0.328021 v 1.968127 h 3.408895 l -0.568148,-0.328021 2.272596,-1.312085 z"
       id="path4502" />
    <path
       style="fill:#ff0000;fill-opacity:1;stroke:none;stroke-width:0.0649999;stroke-linecap:round"
       d="m 43.179349,21.649398 v 1.968126 l 0.568147,-0.328022 2.272599,1.312085 2.272596,-1.312085 -2.272596,-1.312083 0.568148,-0.328021 z"
       id="path4504" />
    <path
       style="fill:#ff0000;fill-opacity:1;stroke:none;stroke-width:0.0649999;stroke-linecap:round"
       d="m 51.701586,21.321376 2.272598,1.312085 -0.56815,0.328021 h 3.408897 v -1.968127 l -0.56815,0.328021 -2.272597,-1.312084 z"
       id="path4506" />
    <path
       style="fill:#ff0000;fill-opacity:1;stroke:none;stroke-width:0.0649999;stroke-linecap:round"
       d="m 63.064572,23.289502 2.272599,-1.312083 -0.568151,-0.328021 h 3.408897 v 1.968126 l -0.56815,-0.328022 -2.272596,1.312085 z"
       id="path4508" />
    <path
       style="fill:#ff0000;fill-opacity:1;stroke:none;stroke-width:0.0649999;stroke-linecap:round"
       d="m 34.657109,26.569714 -3.977046,2.296149 3.977046,2.296147 2.272596,-1.312085 -1.704448,-0.984062 1.704448,-0.984065 z"
       id="path4510" />
    <path
       style="fill:#ff0000;fill-opacity:1;stroke:none;stroke-width:0.0649999;stroke-linecap:round"
       d="m 40.338602,29.849925 3.977045,-2.296147 3.977044,2.296147 -2.272596,1.312085 -1.704448,-0.984062 -1.704449,0.984062 z"
       id="path4512" />
    <path
       style="fill:#ff0000;fill-opacity:1;stroke:none;stroke-width:0.0649999;stroke-linecap:round"
       d="m 51.701586,27.881798 1.704448,0.984065 -1.704448,0.984062 2.272598,1.312085 3.977045,-2.296147 -3.977045,-2.296149 z"
       id="path4514" />
    <path
       style="fill:#ff0000;fill-opacity:1;stroke:none;stroke-width:0.0649999;stroke-linecap:round"
       d="m 65.337171,26.569714 1.704448,0.984064 1.704446,-0.984064 2.272599,1.312084 -3.977045,2.29615 -3.977047,-2.29615 z"
       id="path4516" />
    <path
       style="fill:#ce0000;fill-opacity:1;stroke:none;stroke-width:0.0649999;stroke-linecap:round"
       d="m 30.680063,9.1845939 v 0.656042 l 2.272597,1.3120851 v -0.656043 z"
       id="path3460" />
    <path
       style="fill:#ff5959;fill-opacity:1;stroke:none;stroke-width:0.0649999;stroke-linecap:round"
       d="m 32.95266,10.496678 v 0.656043 l 2.272597,-1.3120851 v -0.656042 z"
       id="path1554" />
    <path
       style="fill:#ff0000;stroke:none;stroke-width:0.0649999;stroke-linecap:round"
       d="m 32.95266,7.8725089 -2.272597,1.312085 2.272597,1.3120841 2.272597,-1.3120841 z"
       id="path1552" />
    <path
       style="fill:none;stroke:none;stroke-width:0.0649999;stroke-linecap:round"
       d="m 32.95266,6.5604249 -5.681493,3.280211 5.681493,3.2802121 5.681493,-3.2802121 z"
       id="path415" />
    <path
       style="fill:#ff0000;fill-opacity:1;stroke:none;stroke-width:0.0649999;stroke-linecap:round"
       d="m 34.657109,13.448869 -3.977046,2.296148 2.272597,1.312084 3.977045,-2.296148 z"
       id="path4218" />
    <path
       style="fill:none;stroke:none;stroke-width:0.0649999;stroke-linecap:round"
       d="m 44.315646,13.120848 -5.681493,3.280211 5.681493,3.280212 5.681493,-3.280212 z"
       id="path415-3-2" />
    <path
       style="fill:#ff0000;fill-opacity:1;stroke:none;stroke-width:0.0649999;stroke-linecap:round"
       d="m 44.315647,14.432932 -2.272599,1.312085 3.977047,2.296148 2.272596,-1.312085 z"
       id="path4496" />
    <path
       style="fill:none;stroke:none;stroke-width:0.0649999;stroke-linecap:round"
       d="m 44.315646,19.681271 -5.681493,3.280211 5.681493,3.280212 5.681493,-3.280212 z"
       id="path415-3-2-61" />
    <path
       style="fill:none;stroke:none;stroke-width:0.0649999;stroke-linecap:round"
       d="m 55.678633,13.120848 5.681493,3.280211 -5.681493,3.280212 -5.681493,-3.280212 z"
       id="path415-3-9" />
    <path
       style="fill:#ff0000;fill-opacity:1;stroke:none;stroke-width:0.0649999;stroke-linecap:round"
       d="m 51.701586,14.760953 3.977047,2.296148 2.272596,-1.312084 -3.977045,-2.296148 z"
       id="path4498" />
    <path
       style="fill:none;stroke:none;stroke-width:0.0649999;stroke-linecap:round"
       d="m 67.041619,13.120848 5.681493,3.280211 -5.681493,3.280212 -5.681493,-3.280212 z"
       id="path415-3-2-6" />
    <path
       style="fill:#ff0000;fill-opacity:1;stroke:none;stroke-width:0.0649999;stroke-linecap:round"
       d="m 67.041619,14.432932 -3.977047,2.296148 2.272599,1.312085 3.977044,-2.296148 z"
       id="path4500" />
    <path
       style="fill:none;stroke:none;stroke-width:0.0649999;stroke-linecap:round"
       d="m 44.315646,26.241694 -5.681493,3.280211 5.681493,3.280212 5.681493,-3.280212 z"
       id="path415-3-2-7" />
    <path
       style="fill:none;stroke:none;stroke-width:0.0649999;stroke-linecap:round"
       d="m 67.04162,19.681272 5.681493,3.280211 -5.681493,3.280212 -5.681493,-3.280212 z"
       id="path415-3-2-61-0" />
    <path
       style="fill:#ff5959;fill-opacity:1;stroke:none;stroke-width:0.0649999;stroke-linecap:round"
       d="m 55.678633,17.057101 v 0.656043 l 2.272596,-1.312085 v -0.656042 z"
       id="path4658" />
    <path
       style="fill:#ff5959;fill-opacity:1;stroke:none;stroke-width:0.0649999;stroke-linecap:round"
       d="m 65.337171,18.041165 v 0.656042 l 3.977044,-2.296148 v -0.656042 z"
       id="path4660" />
    <path
       style="fill:#ff5959;fill-opacity:1;stroke:none;stroke-width:0.0649999;stroke-linecap:round"
       d="m 43.179349,23.617524 v 0.656043 l 0.568147,-0.328023 v -0.656042 z"
       id="path4662" />
    <path
       style="fill:#ff5959;fill-opacity:1;stroke:none;stroke-width:0.0649999;stroke-linecap:round"
       d="m 46.588243,21.649398 -0.568148,0.328021 0.568148,0.328021 z"
       id="path4664" />
    <path
       style="fill:#ff5959;fill-opacity:1;stroke:none;stroke-width:0.0649999;stroke-linecap:round"
       d="m 67.609767,23.289502 v 0.656042 l -2.272596,1.312085 v -0.656042 z"
       id="path4666" />
    <path
       style="fill:#ff5959;fill-opacity:1;stroke:none;stroke-width:0.0649999;stroke-linecap:round"
       d="m 67.041619,30.177948 v 0.656042 l 3.977045,-2.29615 v -0.656042 z"
       id="path4668" />
    <path
       style="fill:#ff5959;fill-opacity:1;stroke:none;stroke-width:0.0649999;stroke-linecap:round"
       d="m 57.951229,28.865863 v 0.656042 l -3.977045,2.296147 V 31.16201 Z"
       id="path4670" />
    <path
       style="fill:#ff5959;fill-opacity:1;stroke:none;stroke-width:0.0649999;stroke-linecap:round"
       d="m 44.315647,30.177948 v 0.656042 l -1.704449,0.984062 c 0,0 0,-0.656042 0,-0.656042 z"
       id="path4672" />
    <path
       style="fill:#ff5959;fill-opacity:1;stroke:none;stroke-width:0.0649999;stroke-linecap:round"
       d="m 36.929705,27.881798 v 0.656042 l -1.136298,0.656043 -0.56815,-0.32802 z"
       id="path4674" />
    <path
       style="fill:#ff5959;fill-opacity:1;stroke:none;stroke-width:0.0649999;stroke-linecap:round"
       d="m 34.657109,22.633461 0.568148,0.328021 1.704448,-0.984063 v -0.656043 z"
       id="path4676" />
    <path
       style="fill:#ce0000;fill-opacity:1;stroke:none;stroke-width:0.0649999;stroke-linecap:round"
       d="m 30.680063,15.745017 v 0.656042 l 2.272597,1.312085 v -0.656043 z"
       id="path4678" />
    <path
       style="fill:#ce0000;fill-opacity:1;stroke:none;stroke-width:0.0649999;stroke-linecap:round"
       d="m 42.043048,15.745017 v 0.656042 l 3.977047,2.296148 v -0.656042 z"
       id="path4956" />
    <path
       style="fill:none;stroke:none;stroke-width:0.0649999;stroke-linecap:round"
       d="m 44.315646,6.5604248 -5.681493,3.2802111 5.681493,3.2802121 5.681493,-3.2802121 z"
       id="path415-3-2-1" />
    <path
       style="fill:#ce0000;fill-opacity:1;stroke:none;stroke-width:0.0649999;stroke-linecap:round"
       d="m 51.701586,14.760953 v 0.656043 l 3.977047,2.296148 v -0.656043 z"
       id="path4958" />
    <path
       style="fill:#ce0000;fill-opacity:1;stroke:none;stroke-width:0.0649999;stroke-linecap:round"
       d="m 43.747496,23.289502 v 0.656042 l 2.272599,1.312085 v -0.656042 z"
       id="path4960" />
    <path
       style="fill:#ce0000;fill-opacity:1;stroke:none;stroke-width:0.0649999;stroke-linecap:round"
       d="m 51.701586,21.321376 v 0.656043 l 1.704448,0.984063 0.56815,-0.328021 z"
       id="path4962" />
    <path
       style="fill:#ce0000;fill-opacity:1;stroke:none;stroke-width:0.0649999;stroke-linecap:round"
       d="m 64.76902,21.649398 v 0.656042 l 0.568151,-0.328021 z"
       id="path4964" />
    <path
       style="fill:#ce0000;fill-opacity:1;stroke:none;stroke-width:0.0649999;stroke-linecap:round"
       d="m 67.609767,23.289502 v 0.656042 l 0.56815,0.328023 v -0.656043 z"
       id="path4966" />
    <path
       style="fill:#ce0000;fill-opacity:1;stroke:none;stroke-width:0.0649999;stroke-linecap:round"
       d="m 30.680063,28.865863 v 0.656042 l 3.977046,2.296147 V 31.16201 Z"
       id="path4968" />
    <path
       style="fill:#ce0000;fill-opacity:1;stroke:none;stroke-width:0.0649999;stroke-linecap:round"
       d="m 44.315647,30.177948 v 0.656042 l 1.704448,0.984062 V 31.16201 Z"
       id="path4970" />
    <path
       style="fill:#ce0000;fill-opacity:1;stroke:none;stroke-width:0.0649999;stroke-linecap:round"
       d="m 51.701586,27.881798 v 0.656042 l 1.1363,0.656043 0.568148,-0.32802 z"
       id="path4972" />
    <path
       style="fill:#ce0000;fill-opacity:1;stroke:none;stroke-width:0.0649999;stroke-linecap:round"
       d="m 63.064572,27.881798 v 0.656042 l 3.977047,2.29615 v -0.656042 z"
       id="path4974" />
    <path
       style="fill:#a70000;fill-opacity:1;stroke:none;stroke-width:0.0649999;stroke-linecap:round"
       d="m 31.816362,22.961482 v 0.656042 h 3.408895 v -0.656042 z"
       id="path4976" />
    <path
       style="fill:#a70000;fill-opacity:1;stroke:none;stroke-width:0.0649999;stroke-linecap:round"
       d="m 53.406034,22.961482 v 0.656042 h 3.408897 v -0.656042 z"
       id="path6760" />
    <path
       style="fill:#ce0000;fill-opacity:1;stroke:none;stroke-width:0.0649999;stroke-linecap:round"
       d="m 40.338602,8.8565729 5.681493,3.2802111 V 11.480742 L 40.338602,8.2005299 Z"
       id="path6794" />
    <path
       style="fill:#ff0000;fill-opacity:1;stroke:none;stroke-width:0.0649999;stroke-linecap:round"
       d="m 40.338602,8.2005299 5.681493,3.2802121 2.272596,-1.312085 -5.681493,-3.2802111 z"
       id="path6859" />
    <path
       style="fill:none;stroke:none;stroke-width:0.0649999;stroke-linecap:round"
       d="M 55.678633,6.5604245 49.99714,9.8406359 55.678633,13.120848 61.360126,9.8406359 Z"
       id="path415-3-2-1-1" />
    <path
       style="fill:#ff0000;fill-opacity:1;stroke:none;stroke-width:0.0649999;stroke-linecap:round"
       d="M 59.655678,8.2005299 53.974185,11.480742 51.701589,10.168657 57.383082,6.8884459 Z"
       id="path6859-9" />
    <path
       style="fill:#ff5959;fill-opacity:1;stroke:none;stroke-width:0.0649999;stroke-linecap:round"
       d="m 53.974184,11.480742 v 0.656042 l 5.681493,-3.2802111 v -0.656043 z"
       id="path6962" />
  </g>
</svg>
